<?xml version="1.0" encoding="UTF-8" ?>
<!DOCTYPE svg PUBLIC "-//W3C//DTD SVG 1.1//EN" "http://www.w3.org/Graphics/SVG/1.1/DTD/svg11.dtd">
<svg width="256pt" height="256pt" viewBox="0 0 256 256" version="1.1" xmlns="http://www.w3.org/2000/svg">
<g id="#f57e60ff">
<path fill="#f57e60" opacity="1.00" d=" M 119.85 0.00 L 135.94 0.00 C 156.41 0.69 176.89 2.71 196.91 7.11 C 221.75 13.04 242.48 33.40 248.57 58.24 C 252.97 77.73 254.98 97.67 256.00 117.60 L 256.00 134.78 C 255.37 155.31 253.24 175.82 249.00 195.93 C 243.39 222.26 221.37 243.96 195.03 249.35 C 175.79 253.38 156.18 255.27 136.56 256.00 L 124.68 256.00 C 102.74 255.76 80.80 253.52 59.38 248.78 C 32.97 242.94 11.27 220.54 6.38 193.92 C 2.60 174.87 0.65 155.50 0.00 136.10 L 0.00 118.96 C 0.78 98.78 2.74 78.59 6.98 58.82 C 12.77 33.95 33.16 13.21 58.02 7.22 C 78.32 2.72 99.10 0.69 119.85 0.00 M 59.12 79.14 C 56.31 82.24 59.52 87.08 63.10 87.57 C 67.50 87.85 71.91 87.57 76.31 87.67 C 81.92 109.74 87.39 131.85 93.01 153.92 C 93.48 157.23 97.22 158.33 100.07 157.67 C 123.06 154.71 146.06 151.74 169.04 148.75 C 171.09 148.70 172.32 146.89 173.02 145.18 C 179.12 130.16 184.71 114.91 191.02 99.98 C 190.65 96.72 187.22 94.58 184.09 94.93 C 161.71 94.93 139.33 94.93 116.95 94.93 C 113.88 94.50 110.85 96.92 110.72 100.04 C 111.09 102.97 113.95 105.40 116.95 105.07 C 136.90 105.07 156.86 105.06 176.82 105.07 C 172.57 116.10 168.33 127.13 164.05 138.15 C 143.51 140.79 122.96 143.41 102.41 146.01 C 96.66 123.61 91.01 101.18 85.17 78.82 C 82.12 75.57 76.96 77.51 73.01 77.00 C 68.46 77.60 62.64 75.34 59.12 79.14 M 96.36 168.52 C 89.80 170.68 88.09 180.24 93.41 184.61 C 98.27 189.31 107.30 186.53 108.75 179.94 C 111.02 172.92 103.23 165.56 96.36 168.52 M 160.35 168.47 C 153.68 170.56 151.90 180.28 157.32 184.65 C 162.20 189.34 171.22 186.47 172.61 179.89 C 174.87 172.94 167.15 165.64 160.35 168.47 Z" />
</g>
<g id="#ffffffff">
<path fill="#ffffff" opacity="1.00" d=" M 59.12 79.14 C 62.64 75.34 68.46 77.60 73.01 77.00 C 76.96 77.51 82.12 75.57 85.17 78.82 C 91.01 101.18 96.66 123.61 102.41 146.01 C 122.96 143.41 143.51 140.79 164.05 138.15 C 168.33 127.13 172.57 116.10 176.82 105.07 C 156.86 105.06 136.90 105.07 116.95 105.07 C 113.95 105.40 111.09 102.97 110.72 100.04 C 110.85 96.92 113.88 94.50 116.95 94.93 C 139.33 94.93 161.71 94.93 184.09 94.93 C 187.22 94.58 190.65 96.72 191.02 99.98 C 184.71 114.91 179.12 130.16 173.02 145.18 C 172.32 146.89 171.09 148.70 169.04 148.75 C 146.06 151.74 123.06 154.71 100.07 157.67 C 97.22 158.33 93.48 157.23 93.01 153.92 C 87.39 131.85 81.92 109.74 76.31 87.67 C 71.91 87.57 67.50 87.85 63.10 87.57 C 59.52 87.08 56.31 82.24 59.12 79.14 Z" />
<path fill="#ffffff" opacity="1.00" d=" M 96.36 168.52 C 103.23 165.56 111.02 172.92 108.75 179.94 C 107.30 186.53 98.27 189.31 93.41 184.61 C 88.09 180.24 89.80 170.68 96.36 168.52 Z" />
<path fill="#ffffff" opacity="1.00" d=" M 160.35 168.47 C 167.15 165.64 174.87 172.94 172.61 179.89 C 171.22 186.47 162.20 189.34 157.32 184.65 C 151.90 180.28 153.68 170.56 160.35 168.47 Z" />
</g>
</svg>
